<svg id="Layer_1" data-name="Layer 1" xmlns="http://www.w3.org/2000/svg" viewBox="0 0 200 60"><defs><style>.cls-1{fill:#29abe2;}</style></defs><path class="cls-1" d="M60.9849,32.3807c.0935-1.0027.073-2.1963.0928-3.3893.0092-.5538-.2135-.7545-.7489-.7263a11.96,11.96,0,0,1-1.3912-.0164.858.858,0,0,1-.9011-.9357q-.0046-3.4149.004-6.83a.857.857,0,0,1,.9029-.9321,10.1857,10.1857,0,0,1,1.3247-.0143c.54.0328.7788-.1328.8343-.7268a16.4042,16.4042,0,0,1,.4334-3.1432,8.17,8.17,0,0,1,7.3238-6.07,13.7458,13.7458,0,0,1,8.77,1.9586c.1865.1184.3783.2308.5533.3648,1.15.8805,1.3194,1.5715.647,2.86-.6338,1.2139-1.31,2.4053-1.96,3.611-.2062.3828-.5538.8519-.2425,1.2126.3158.3658.7985-.0007,1.1519-.1667a9.4909,9.4909,0,0,1,5.8273-.6929,2.761,2.761,0,0,1,.8337.2047,7.3538,7.3538,0,0,0,3.6824.5855q10.942-.0123,21.884-.0053c.9394,0,1.9146-.1519,2.67.6568.2019.2162.4577.0519.6632-.0868a8.6184,8.6184,0,0,1,6.4734-1.2189.9918.9918,0,0,1,.3205.0766,4.4078,4.4078,0,0,0,3.8231.04c1.3054-.45,2.5758.0691,3.8119.4732a1.5955,1.5955,0,0,0,1.1405-.0083,9.3705,9.3705,0,0,1,9.5209,1.2809,7.8982,7.8982,0,0,1,2.5117,3.7537c1.3709,3.8834,1.5028,7.7776-.4552,11.5032a7.8614,7.8614,0,0,1-7.0976,4.35,13.5817,13.5817,0,0,1-4.4524-.5462c-.4893-.1469-.6663-.09-.6366.4883a9.5879,9.5879,0,0,1-1.8609,6.5488,9.0371,9.0371,0,0,1-6.8229,3.5775,16.5645,16.5645,0,0,1-6.0977-.6539,12.8387,12.8387,0,0,1-3.9114-1.75c-.8386-.6092-.938-.983-.4544-1.9073.2243-.4287.5148-.8232.7811-1.2294.5087-.7759.9206-.8988,1.7033-.3845a10.5606,10.5606,0,0,0,3.3409,1.4082,10.68,10.68,0,0,0,6.2612-.0888,5.3335,5.3335,0,0,0,3.3842-6.1061,3.2322,3.2322,0,0,0-2.6947-2.5935A7.338,7.338,0,0,0,119.819,37a9.7906,9.7906,0,0,1-2.44-.1532,1.2534,1.2534,0,0,1-.5281-.2541.7833.7833,0,0,1-.2948-.8861c.0917-.3524.4021-.3793.6916-.3884a14.121,14.121,0,0,0,3.0148-.4016,4.3161,4.3161,0,0,0,3.1056-2.7249,10.0413,10.0413,0,0,0,.2913-5.9962c-.2644-1.1824.4057-1.9031,1.6355-1.6859,1.1065.1954,1.4729.8183,1.16,1.9014a10.6243,10.6243,0,0,0,.1387,7.1449,6.0268,6.0268,0,0,0,6.6427,3.6758,5.8674,5.8674,0,0,0,5.1368-4.5883,10.002,10.002,0,0,0-.7376-7.7662,5.2744,5.2744,0,0,0-4.107-2.6974,6.6419,6.6419,0,0,0-4.7547.9568.686.686,0,0,1-.9474-.0734,4.4249,4.4249,0,0,0-5.2918-.3278,1.1585,1.1585,0,0,1-1.38.0619,6.183,6.183,0,0,0-5.6752-.1051,4.38,4.38,0,0,0-2.4053,2.6206c-.9684,2.87-.9879,5.6853.9419,8.2484.2271.3017.3214.5957-.0228.8651a2.6677,2.6677,0,0,0-1.1117,3.0288,3.5853,3.5853,0,0,0,2.769,2.2217,9.7834,9.7834,0,0,0,2.9571.2986,10.4251,10.4251,0,0,1,1.5833.0849c.5415.0762,1.0771.1416,1.2236.8a1.4988,1.4988,0,0,1-.7529,1.6917,3.966,3.966,0,0,1-1.6174.5556,10.12,10.12,0,0,1-6.2061-1.1845,5.3522,5.3522,0,0,1-2.1271-2.2971c-.4534-.9447-.4705-.9462-1.3281-.4106-3.1307,1.9551-8.4811,1.7674-11.3466-1.1187-.5941-.5983-.6072-.5756-1.1434.042a6.17,6.17,0,0,1-2.7242,1.7064,11.0658,11.0658,0,0,1-7.4846.0857,7.3057,7.3057,0,0,1-4.8975-5.9364,8.0857,8.0857,0,0,1-.1482-1.3811c-.0035-.2812-.0129-.6578-.3954-.6419-.3317.0138-.2967.3945-.34.6391a3.1762,3.1762,0,0,0,.0226.5925,44.008,44.008,0,0,1-.0718,6.0222c-.1.8465-.43,1.1147-1.2858,1.2734a5.1658,5.1658,0,0,1-.9191.1036c-1.9231.0061-3.8462-.0061-5.7693-.0027a1.7285,1.7285,0,0,1-1.4291-.5574c-.2762-.3245-.55-.4256-.8567-.0179a1.2445,1.2445,0,0,1-.9216.463,62.873,62.873,0,0,1-7.1542.0772,1.2871,1.2871,0,0,1-1.41-1.3715C61.0813,36.9844,60.8608,34.78,60.9849,32.3807ZM74.2043,29.825h.002q0,3.2489.0006,6.4976c.0008.9759.01.984,1.0117.9845.6409,0,1.2823-.0212,1.9226-.0027.4933.0143.6834-.13.6843-.6826.0041-2.6271-.11-5.2532.08-7.8825.2277-3.1618,3.0987-4.4908,5.82-3.7091a1.0163,1.0163,0,0,1,.7935,1.2048,30.5,30.5,0,0,0-.0655,4.8333A7.2669,7.2669,0,0,0,85.72,35.125a5.527,5.527,0,0,0,3.8975,2.1257A5.8436,5.8436,0,0,0,96.39,31.7248c.1458-2.4085.1163-4.8144.1057-7.22s.4488-2.127-2.2132-2.1305c-1.1448-.0015-1.1505.0286-1.3015,1.1338a6.0549,6.0549,0,0,0-.054.9245c.0345,1.9426.0889,3.8849.1147,5.8277a7.8945,7.8945,0,0,1-.3655,2.4814,1.9756,1.9756,0,0,1-1.7767,1.4718,2.1862,2.1862,0,0,1-2.3663-.9519,4.6352,4.6352,0,0,1-.6519-2.401c-.0107-2.5187-.0009-5.0375-.002-7.5563,0-.8251-.0489-.91-.8533-.8692a13.5988,13.5988,0,0,1-3.9994-.447,4.5833,4.5833,0,0,0-1.5138-.1123,4.1424,4.1424,0,0,0-3.58,2.1475c-.0858.1587-.1369.4513-.3837.3717-.2237-.072-.126-.3459-.1377-.5342-.0163-.2644-.02-.53-.01-.7953.0163-.452-.1993-.6374-.6422-.6311A16.6744,16.6744,0,0,1,74.904,22.41c-.592-.0577-.712.1959-.7077.7192C74.2149,25.3607,74.2043,27.5929,74.2043,29.825Zm-6.36,1.49h.0047q0-2.5192.0007-5.0386c.0014-.8979.0174-.9131.9395-.92.8618-.0069,1.7239-.0191,2.5855-.0049.5055.0084.7305-.2045.7163-.7113s-.017-1.0174.0091-1.5245c.027-.5236-.21-.7056-.7117-.6946-.95.0208-1.9.0019-2.8506.0121-.4644.005-.698-.1877-.6916-.669.0116-.8617-.0305-1.7257.0173-2.5849A2.9972,2.9972,0,0,1,70.3454,16.02a4.7565,4.7565,0,0,1,2.1524.1651c.6251.1252,1.2622.8372,1.84.3525a5.7093,5.7093,0,0,0,.963-1.7141.7131.7131,0,0,0-.3547-1.1242,9.04,9.04,0,0,0-5.7744-.9977,5.5126,5.5126,0,0,0-4.8392,4.7625,18.7482,18.7482,0,0,0-.2061,3.7638c.003,1.074.0093,1.074-1.0354,1.0861-1.4847.0173-1.4877.02-1.49,1.4613,0,.1768-.0008.3536,0,.53.0045.8831.1011.9877.9691,1.0375.1542.0088.3093.005.4639.0055,1.094.0035,1.0954.0034,1.0948,1.0986-.0018,3.337.0069,6.6741-.0177,10.011-.0047.6266.1941.8853.836.85a18.0943,18.0943,0,0,1,2.0542.0076c.6253.0369.8655-.1853.8534-.83C67.8228,34.7631,67.844,33.0389,67.844,31.3151Zm34.1027-4.0543h-.01c0-1.37-.01-2.7409.0053-4.1112.0055-.4949-.1648-.7373-.6916-.7211-.7066.0218-1.4146.0094-2.1217-.0044-.4359-.0086-.6383.1622-.6559.62a65.7228,65.7228,0,0,0,.16,8.993,6.1939,6.1939,0,0,0,1.3557,3.3925c1.5146,1.8587,4.4506,2.1831,6.4678,1.5877a5.2459,5.2459,0,0,0,3.8565-4.7919c.0957-.7042.1062-1.4086.1582-2.1125.1761-2.3835.0694-4.7705.0683-7.1561,0-.4011-.1861-.6221-.62-.5726a9.6135,9.6135,0,0,1-2.1825-.0116c-.39-.0445-.6031.0632-.652.5175a23.5412,23.5412,0,0,0-.0357,3.9685,22.49,22.49,0,0,1-.0847,4.8941c-.3351,2.118-1.9485,3.07-3.6446,2.18a2.7612,2.7612,0,0,1-1.3634-2.6274C101.9136,29.9584,101.9467,28.6091,101.9467,27.2608Z"/><path class="cls-1" d="M129.2612,29.79a7.4339,7.4339,0,0,1,.49-2.9131,2.8214,2.8214,0,0,1,2.7062-1.78,2.5356,2.5356,0,0,1,2.5192,1.8059,6.6751,6.6751,0,0,1-.322,5.9936,2.5656,2.5656,0,0,1-2.6685,1.3442,2.6074,2.6074,0,0,1-2.2225-1.7387A5.7878,5.7878,0,0,1,129.2612,29.79Z"/><path class="cls-1" d="M115.5627,28.51a6.4062,6.4062,0,0,1,.29-1.5684,2.5371,2.5371,0,0,1,2.34-1.8384,2.1548,2.1548,0,0,1,2.2267,1.4517,5.0034,5.0034,0,0,1-.0337,4.2969,2.265,2.265,0,0,1-2.4426,1.4428,2.6458,2.6458,0,0,1-2.1389-2.084C115.6831,29.6526,115.6405,29.0776,115.5627,28.51Z"/></svg>