<?xml version="1.0" encoding="utf-8"?>
<!-- Generator: Adobe Illustrator 21.0.2, SVG Export Plug-In . SVG Version: 6.00 Build 0)  -->
<svg version="1.1" id="Layer_1" xmlns="http://www.w3.org/2000/svg" xmlns:xlink="http://www.w3.org/1999/xlink" x="0px" y="0px"
	 viewBox="0 0 63 25.2" style="enable-background:new 0 0 63 25.2;" xml:space="preserve">
<style type="text/css">
	.st0{fill:#E53238;}
	.st1{fill:#0064D2;}
	.st2{fill:#F5AF02;}
	.st3{fill:#86B817;}
</style>
<g>
	<path id="e" class="st0" d="M8.1,5.5C3.7,5.5,0,7.4,0,13.1c0,4.5,2.5,7.3,8.3,7.3c6.8,0,7.2-4.5,7.2-4.5h-3.3c0,0-0.7,2.4-4.1,2.4
		c-2.8,0-4.8-1.9-4.8-4.5h12.6v-1.7C15.8,9.5,14.2,5.5,8.1,5.5z M8,7.6c2.7,0,4.5,1.6,4.5,4.1H3.3C3.3,9.1,5.7,7.6,8,7.6z"/>
	<path id="b" class="st1" d="M15.8,0v17.6c0,1-0.1,2.4-0.1,2.4h3.1c0,0,0.1-1,0.1-1.9c0,0,1.6,2.4,5.8,2.4c4.4,0,7.5-3.1,7.5-7.5
		c0-4.1-2.8-7.4-7.5-7.4c-4.4,0-5.7,2.4-5.7,2.4V0H15.8z M24,7.7c3,0,4.9,2.2,4.9,5.2c0,3.2-2.2,5.3-4.9,5.3c-3.2,0-5-2.5-5-5.3
		C19,10.4,20.6,7.7,24,7.7z"/>
	<path id="a" class="st2" d="M40,5.5c-6.7,0-7.1,3.7-7.1,4.2h3.3c0,0,0.2-2.1,3.6-2.1c2.2,0,3.9,1,3.9,2.9v0.7h-3.9
		c-5.2,0-7.9,1.5-7.9,4.6c0,3,2.5,4.7,5.9,4.7c4.7,0,6.2-2.6,6.2-2.6c0,1,0.1,2,0.1,2h3c0,0-0.1-1.3-0.1-2.1V11
		C46.9,6.5,43.3,5.5,40,5.5L40,5.5z M43.7,13.3v0.9c0,1.2-0.7,4.2-5.1,4.2c-2.4,0-3.4-1.2-3.4-2.6C35.2,13.3,38.7,13.3,43.7,13.3
		L43.7,13.3z"/>
	<path id="y" class="st3" d="M45.1,6.1h3.7l5.4,10.8l5.4-10.8H63l-9.8,19.2h-3.6l2.8-5.3L45.1,6.1z"/>
</g>
</svg>
