<svg id="Layer_1" data-name="Layer 1" xmlns="http://www.w3.org/2000/svg" viewBox="0 0 200 60"><path d="M172.7182,15.2586c-6.4266.2766-5.381-1.3837-5.3194,5.4116.0308,2.8288,0,5.6575,0,8.5171q-.2307.0922-.4616.1844l-.1049-.097.0009,0L150.6583,14.3011V16.41c-.01.1936-.0168.3825-.0168.571,0,.4768.01.9551.0168,1.4325V32.6691c-.0154,3.6755-.0159,7.3436-.0476,11.0312,0,.9532.3072,1.3529,1.3219,1.2606a22.1925,22.1925,0,0,1,3.7818,0c1.23.0923,1.4144-.43,1.3836-1.4759-.0607-3.9356-.0308-7.8714-.0607-11.7764,0-.3074-.1849-.7072.3685-.984l16.1425,14.8512.1541.1231V33.9839c.03-5.9036,0-11.8071.03-17.7106C173.7329,15.4431,173.487,15.2278,172.7182,15.2586Z"/><path d="M86.2843,29.0163c.0009-4.13-.0172-8.2609.0127-12.3911.0068-.9271-.2152-1.3893-1.2633-1.3332-1.3047.07-2.6191.022-3.9268-.0383-.91-.0418-1.3452.1474-1.3174,1.23.0795,3.1206.003,6.2449.0442,9.367.0113.8685-.1531,1.2343-1.1484,1.2147q-5.2123-.1016-10.4263-.0033c-1.0313.0186-1.297-.351-1.2852-1.3041.0392-3.021-.0172-6.0434.03-9.0643.0165-1.0179-.2874-1.4771-1.3609-1.4191a22.6614,22.6614,0,0,1-3.3218-.029c-1.4179-.1326-1.94.3213-1.9067,1.8295.096,4.38.0344,8.763.0344,13.1449h.0045c0,4.4324.0422,8.8655-.0269,13.2968-.0188,1.21.3318,1.5974,1.5328,1.4884a19.1474,19.1474,0,0,1,3.6228.0125c1.1905.12,1.4488-.3411,1.4247-1.4379-.0756-3.4732-.0344-6.9489-.0885-10.4226-.0143-.8843.2147-1.2594,1.174-1.2469q5.2113.0684,10.4233.0032c1.0014-.0118,1.285.3654,1.2762,1.3323-.0324,3.5248.0435,7.0507.0059,10.5753-.01.9594.3266,1.2145,1.2252,1.1756a29.4577,29.4577,0,0,1,3.775.0428c1.2071.103,1.524-.3324,1.509-1.5179C86.2431,38.6871,86.2829,33.8514,86.2843,29.0163Z"/><path d="M106.2771,20.1933c3.6266.0382,7.2531-.003,10.88-.0082,3.4711-.0051,3.4344-.0011,3.3615-3.5634-.0211-1.051-.3663-1.3819-1.41-1.3757q-9.5193.0574-19.0394,0c-1.0383-.0064-1.3745.2788-1.3595,1.36.0623,4.477.0262,8.9554.0262,15.4915.23,2.4675-.2274,6.9975-.0353,11.5276.05,1.1822.4743,1.3858,1.53,1.377,5.5407-.0464,11.0816-.0208,16.6223-.022,3.6173,0,3.5507-.0034,3.6241-3.551.0286-1.3655-.41-1.71-1.7167-1.6814-4.1782.09-8.3587.0381-12.5378.0923-.9165.0119-1.2289-.2477-1.1913-1.199.0728-1.81.0449-3.6261-.0149-5.4373-.03-.9363.1928-1.3514,1.2483-1.328,3.6219.08,7.2463.0937,10.87.0789,3.8668-.0158,2.9147.4573,3.2706-3.2178.1336-1.3727-.3978-1.6926-1.7025-1.67-4.1288.0713-8.26-.0071-12.3906.0133-.8784.0045-1.2748-.2361-1.2417-1.19.05-1.4581.0285-2.923-.0539-4.38C104.959,20.5349,105.272,20.1826,106.2771,20.1933Z"/><path d="M44.8763,29.574A37.9624,37.9624,0,0,0,38.4325,27.06a11.22,11.22,0,0,1-3.4006-1.5878c-1.7861-1.3-1.7514-3.1985.0713-4.4521a4.1418,4.1418,0,0,1,2.37-.86c2.1958-.0011,4.3472.1678,6.1112,1.6785.6037.5168,1.0166.38,1.527-.1211a31.6963,31.6963,0,0,1,2.791-2.5367c.993-.7657.8325-1.2157-.1307-1.8515a17.3733,17.3733,0,0,0-9.5132-2.6471,12.7372,12.7372,0,0,0-6.77,1.5158,8.0746,8.0746,0,0,0-4.222,9.2455c.8327,2.76,2.8663,4.3707,5.3246,5.6373,2.6042,1.3414,5.54,1.8034,8.1186,3.1924,1.2087.6512,2.3249,1.4458,2.0817,2.9868a3.0742,3.0742,0,0,1-2.8239,2.5583,10.9964,10.9964,0,0,1-8.1721-1.79c-.9946-.6761-1.5951-.6367-2.38.2624A20.1574,20.1574,0,0,1,26.84,40.6129c-.8122.6555-.7493,1.04.1187,1.6446a20.3622,20.3622,0,0,0,11.26,3.3246,12.8867,12.8867,0,0,0,7.3388-1.86c2.7353-1.6539,4.3478-4.0279,4.1195-7.3369C49.4545,33.1805,47.6544,31.0091,44.8763,29.574Z"/><path d="M138.2717,30.2956c.0016-4.5279-.012-9.0556.0127-13.5833.0055-.93-.111-1.555-1.2872-1.4656a24.4382,24.4382,0,0,1-3.77.037c-1.229-.097-1.5719.4084-1.5457,1.541.0616,2.7147.0691,5.4307.0669,8.1463q-.0069,9.5017-.051,19.0033c-.0032.7593.2605,1.0887,1.0569,1.0543a35.1923,35.1923,0,0,1,3.9213-.0257c1.23.0845,1.6479-.2851,1.6246-1.5776C138.2192,39.05,138.27,34.6723,138.2717,30.2956Z"/></svg>