<svg id="Layer_1" data-name="Layer 1" xmlns="http://www.w3.org/2000/svg" viewBox="0 0 200 60"><path d="M62.6709,30.0939c0,3.8275-.0686,7.6565.02,11.482a5.9574,5.9574,0,0,1-6.1345,6.17c-7.7182-.0118-15.4364.0024-23.1547-.0064a5.9674,5.9674,0,0,1-6.1471-6.1211q-.0165-11.6246,0-23.2491a5.9674,5.9674,0,0,1,6.15-6.11q11.5773-.0126,23.1546-.004a5.9377,5.9377,0,0,1,6.128,6.1674C62.6132,22.3112,62.6709,26.2031,62.6709,30.0939Zm-6.2574-.03h-.0127q0-2.1817,0-4.3636c.0021-1.4861.0244-2.9724.008-4.4584-.0228-2.0823-.9566-2.65-2.5535-2.6787-5.9427-.1072-11.8888-.0775-17.8328-.0145a2.1016,2.1016,0,0,0-2.3024,2.1843c.0146,2.4971-.0193,4.9944-.0241,7.4917-.0069,3.5411.0152,7.0824-.017,10.6233-.0166,1.8365.8678,2.5934,2.69,2.6116q8.6316.0867,17.2643-.002c1.8366-.02,2.8-.8043,2.7852-2.7614C56.3979,35.8185,56.4135,32.941,56.4135,30.0635Z"/><path d="M104.2312,27.551a3.1477,3.1477,0,0,0,.1573-1.5751c-.0013-.7422.4537-.7742,1.0063-.783.5937-.0094.9329.119.931.8362q-.0278,10.3811,0,20.7624c.0013.6674-.3037.8817-.9232.8909-.6428.01-1.0268-.1713-1.0223-.8977q.0219-3.46-.0012-6.9206c-.0027-.3522.1654-.8694-.2374-1.0157-.3188-.1158-.54.3434-.7807.5815a7.15,7.15,0,0,1-5.0634,2.0652,8.1071,8.1071,0,0,1-7.9408-4.3378,8.2054,8.2054,0,0,1,4.4705-11.8335c3.194-1.1248,6.277-.8346,8.7734,1.8425A.841.841,0,0,0,104.2312,27.551Zm.2146,5.7114a6.5583,6.5583,0,0,0-6.4236-6.7567,6.4547,6.4547,0,0,0-6.7048,6.7167,6.3688,6.3688,0,0,0,6.6693,6.5928A6.47,6.47,0,0,0,104.4458,33.2624Z"/><path d="M79.4087,41.4864a7.16,7.16,0,0,1-7.3423-4.5589,3.6418,3.6418,0,0,1-.1935-.7262c-.1938-1.3583-.0676-1.47,1.2873-1.3655a.612.612,0,0,1,.6657.6145c.3346,2.3846,2.8864,4.0034,4.8764,4.1331a5.6464,5.6464,0,0,0,5.7755-3.52,3.6135,3.6135,0,0,0-1.4612-4.102,21.8286,21.8286,0,0,0-5.649-2.0344c-1.8487-.5117-3.5483-1.2538-4.4265-3.1649a6.0972,6.0972,0,0,1,3.0662-7.8552A7.2079,7.2079,0,0,1,84.26,20.43a6.7553,6.7553,0,0,1,1.3091,2.4559c.1254.3609.3374.9853-.2819,1.1014-.5494.1029-1.3118.42-1.6189-.4494a4.406,4.406,0,0,0-2.6655-2.8566,4.778,4.778,0,0,0-6.2837,2.38,3.4847,3.4847,0,0,0,2.3173,4.625,43.9084,43.9084,0,0,1,5.893,1.8511c2.2654,1.0811,3.7746,2.7244,3.7485,5.3032a6.4581,6.4581,0,0,1-3.64,5.8524A6.3015,6.3015,0,0,1,79.4087,41.4864Z"/><path d="M165.4073,33.8687c-2.0857,0-4.1714-.0048-6.257.002-1.0152.0034-1.1569.1846-.9776,1.18a7.13,7.13,0,0,0,4.5564,4.5321,6.19,6.19,0,0,0,7.1009-3.074,1.9734,1.9734,0,0,1,1.9669-.4643c.3415.2014.1951.46.0606.7259a7.8948,7.8948,0,0,1-5.0034,4.3384c-3.8861,1.1024-7.1017-.1146-9.1308-2.8517a7.8975,7.8975,0,0,1-1.5139-6.8778,8.29,8.29,0,0,1,15.4262-2.2539,10.5337,10.5337,0,0,1,1.0942,3.6889c.1076.7317-.1294,1.0955-.9711,1.0758-2.1161-.05-4.2342-.0165-6.3514-.0165Zm-.969-1.832c1.8008,0,3.6023-.0276,5.4021.0136.7226.0165.8415-.34.6572-.8712a6.2558,6.2558,0,0,0-5.6317-4.6495,6.3391,6.3391,0,0,0-6.6187,4.5149c-.219.6113-.1395,1.02.6941,1.0022C160.7728,32.0065,162.6059,32.0343,164.4383,32.0367Z"/><path d="M144.2852,33.1272c0,2.37-.03,4.7407.0167,7.11.0149.7661-.3149.8755-.9588.881-.6632.0056-.9974-.1555-.9781-.8952.0115-.4421.287-1.1041-.19-1.2983-.4479-.1825-.7578.4416-1.1024.7491a7.2562,7.2562,0,0,1-4.8822,1.8194,8.2149,8.2149,0,0,1-7.3608-3.5405,8.746,8.746,0,0,1,.0646-9.7251c2.6538-3.9275,9.3779-4.7177,12.6023-1.2409.2054.2214.42.4606.698.334.3077-.14.1713-.5068.18-.7764.0215-.6861-.1514-1.4356.9957-1.3662.6795.0411.9416.2155.93.9341C144.261,28.45,144.2853,30.7887,144.2852,33.1272Zm-1.8478.0547a6.5758,6.5758,0,0,0-6.5725-6.682,6.4505,6.4505,0,0,0-6.5567,6.6549,6.3745,6.3745,0,0,0,6.5652,6.6655A6.49,6.49,0,0,0,142.4374,33.1819Z"/><path d="M124.2016,33.2066q0,3.4143-.0014,6.8286c-.0006.5315.1058,1.0921-.76,1.0907-.7327-.0012-1.163-.1705-1.09-.998.0215-.2432.0422-.5469-.2285-.6766-.382-.183-.4794.2356-.6458.4077a5.185,5.185,0,0,1-3.6574,1.6265,7.5692,7.5692,0,0,1-5.1755-1.2687,5.3982,5.3982,0,0,1-2.2618-4.2435c-.1-3.2846-.055-6.5734-.1043-9.86-.0119-.7926.3676-.9389,1.05-.9424.7245-.0038.8942.303.8875.9779-.0293,2.9714-.0673,5.9448.0117,8.9145a4.4287,4.4287,0,0,0,2.8511,4.394,5.06,5.06,0,0,0,7.08-4.3764c.2462-2.9521.1008-5.9378.1-8.9087,0-.6536.1675-.9835.8955-1,.7587-.017,1.0776.2062,1.0637,1.0163C124.1758,28.5274,124.2017,30.8672,124.2016,33.2066Z"/><path d="M148.4783,33.1142q0-3.3637,0-6.7274c0-.6329.0159-1.1917.9144-1.2174.8541-.0245,1.0286.3948.9792,1.1074-.0143.2063-.082.5013.1612.5918.27.1005.4561-.109.6021-.3394a3.993,3.993,0,0,1,3.0137-1.6756c.4063-.0641.9255-.12.8922.5-.0282.5245.3845,1.2237-.4959,1.5176a6.1787,6.1787,0,0,0-2.71,1.34,6.1033,6.1033,0,0,0-1.4489,4.3554c-.0782,2.5245-.034,5.0533-.0155,7.58.0047.6432-.1392.9848-.89.9848s-1.0088-.2931-1.0036-1.0057c.0172-2.3371.0065-4.6744.0065-7.0116Z"/><path d="M44.9755,25.2668c1.1675,0,2.3355.0218,3.5022-.0077.8176-.0206,1.2453.2928,1.242,1.1465-.0093,2.3978-.0054,4.7956-.003,7.1934.0007.7721-.3366,1.147-1.1486,1.1393-2.3662-.0224-4.7329.0048-7.0992-.0137-1.008-.0078-1.2907-.3048-1.2965-1.3186q-.02-3.4077.0006-6.8155c.0066-1.0169.2889-1.3,1.3-1.3184C42.64,25.2506,43.8081,25.2671,44.9755,25.2668Z"/></svg>